<svg width="154" height="154" viewBox="0 0 154 154" fill="none" xmlns="http://www.w3.org/2000/svg">
<g opacity="0.2" clip-path="url(#clip0)">
<path d="M76.9998 35.9336C68.4945 35.9336 61.5999 42.8283 61.5999 51.3336C61.6082 59.8353 68.4981 66.7252 76.9998 66.7335C85.5051 66.7335 92.3998 59.8388 92.3998 51.3336C92.3998 42.8283 85.5051 35.9336 76.9998 35.9336ZM76.9998 61.6002C71.3297 61.6002 66.7332 57.0036 66.7332 51.3336C66.7332 45.6635 71.3297 41.0669 76.9998 41.0669C82.6699 41.0669 87.2665 45.6635 87.2665 51.3336C87.2665 57.0036 82.6702 61.6002 76.9998 61.6002Z" fill="white"/>
<path d="M104.516 73.5358C103.668 72.6872 102.775 71.8858 101.84 71.135L101.866 71.0606C110.326 44.9528 100.862 16.375 78.491 0.477396C77.5988 -0.159457 76.4008 -0.159457 75.5085 0.477396C53.1375 16.375 43.6736 44.9528 52.1339 71.0606L52.1596 71.135C38.0455 82.4649 35.7881 103.091 47.1177 117.205C47.8685 118.141 48.6699 119.034 49.5185 119.881C49.9998 120.362 50.6523 120.633 51.3331 120.633C51.6087 120.633 51.8824 120.588 52.1442 120.502C53.0666 120.195 53.7362 119.393 53.8741 118.431L55.812 104.869C55.9932 103.606 57.0744 102.667 58.3504 102.666H66.1684L64.2178 112.42C63.9342 113.809 64.8302 115.164 66.2191 115.448C66.3882 115.482 66.5605 115.5 66.7331 115.5H87.2664C88.6838 115.5 89.8334 114.351 89.8337 112.934C89.8337 112.761 89.8164 112.589 89.7817 112.42L87.8311 102.666H95.6491C96.9257 102.668 98.0076 103.607 98.1876 104.871L100.125 118.431C100.263 119.393 100.933 120.195 101.855 120.502C102.117 120.588 102.391 120.633 102.666 120.633C103.347 120.633 104 120.362 104.481 119.881C117.289 107.093 117.304 86.3434 104.516 73.5358ZM76.9998 5.75734C83.1684 10.4633 88.3287 16.3612 92.1739 23.1003H61.8256C65.6708 16.3612 70.8311 10.4633 76.9998 5.75734ZM58.3504 97.5335C54.5248 97.5498 51.286 100.36 50.73 104.145L49.6186 111.93C46.1895 106.753 44.6078 100.569 45.1295 94.3816H45.1269C45.6919 87.5061 48.804 81.0895 53.8536 76.3893L60.645 97.5335H58.3504ZM69.8644 110.367L71.4044 102.667H82.5951L84.1351 110.367H69.8644ZM66.0375 97.5335L57.5881 71.2457L57.0234 69.4875C52.6476 55.9333 53.4381 41.2398 59.2436 28.2336H94.7559C100.561 41.2398 101.352 55.9333 96.9761 69.4875L96.4114 71.2457L87.962 97.5335H66.0375ZM104.381 111.93L103.27 104.145C102.714 100.36 99.4747 97.5498 95.6491 97.5335H93.3545L100.151 76.3893C105.198 81.0908 108.307 87.5071 108.87 94.3816C109.392 100.569 107.81 106.753 104.381 111.93Z" fill="white"/>
<path d="M66.7332 120.428V128.795C60.5004 126.893 53.7266 128.549 49.0746 133.113C45.1745 128.472 39.4284 125.785 33.3666 125.767C31.4977 125.767 29.6382 126.026 27.8406 126.537C25.768 114.206 15.0708 105.189 2.56666 105.233H0V110.367H2.56666C13.0589 110.334 21.8673 118.261 22.9383 128.698C20.4438 130.151 18.2826 132.112 16.596 134.455C11.9699 130.503 6.08459 128.331 0 128.333V133.467C11.335 133.48 20.5205 142.665 20.5333 154H25.6666C25.6695 148.315 23.7724 142.791 20.2766 138.307C21.8003 135.783 24.014 133.747 26.6573 132.44C26.683 132.44 26.7112 132.44 26.7369 132.414C28.8044 131.416 31.0707 130.899 33.3666 130.9C38.3411 130.923 42.9993 133.343 45.8791 137.399C44.4206 140.14 43.6499 143.195 43.6332 146.3H48.7666C48.7643 143.676 49.5058 141.105 50.9046 138.885H50.8892C50.9251 138.836 50.9739 138.8 51.0098 138.749C54.4784 133.652 61.0897 131.754 66.7332 134.237V140.961H71.8665V120.428H66.7332Z" fill="white"/>
<path d="M151.433 110.367H154V105.233H151.433C138.929 105.189 128.232 114.206 126.159 126.537C124.361 126.026 122.502 125.767 120.633 125.767C114.572 125.783 108.826 128.467 104.925 133.105C100.273 128.541 93.4992 126.885 87.2664 128.788V120.42H82.1331V140.954H87.2664V134.237C92.9095 131.754 99.5206 133.65 102.99 138.746C103.026 138.798 103.074 138.834 103.11 138.882H103.095C104.494 141.103 105.236 143.675 105.233 146.3H110.366C110.35 143.195 109.579 140.14 108.121 137.399C111 133.343 115.658 130.923 120.633 130.9C122.929 130.9 125.196 131.42 127.263 132.42C127.288 132.432 127.317 132.435 127.342 132.445C129.989 133.749 132.208 135.783 133.736 138.307C130.235 142.789 128.334 148.313 128.333 154H133.466C133.479 142.665 142.665 133.48 154 133.467V128.333C147.915 128.332 142.03 130.503 137.404 134.455C135.717 132.112 133.556 130.151 131.061 128.698C132.133 118.26 140.941 110.334 151.433 110.367Z" fill="white"/>
</g>
<defs>
<clipPath id="clip0">
<rect width="154" height="154" fill="white"/>
</clipPath>
</defs>
</svg>
